# xmcd CD database file
#
# Track frame offsets:
#	183
#	22613
#	35138
#	56608
#	74798
#	88980
#	107403
#	120303
#	130058
#	147770
#
# Disc length: 2110 seconds
#
# Revision: 0
# Processed by: cddbd v1.5.1PL0 Copyright (c) Steve Scherf et al.
# Submitted via: CDex 1.51
#
DISCID=86083c0a
DTITLE=Joao Gilberto - Getz Gilberto Live at Carnegie Hall 9 October 1964
DYEAR=1964
DGENRE=Jazz
TTITLE0=Grandfather's Waltz
TTITLE1=Tonight I Shall Sleep with a Smile on My Face
TTITLE2=Stan's Blues
TTITLE3=Here's That Rainy Day
TTITLE4=Samba de Minha Terra
TTITLE5=Rosa Morena
TTITLE6=Um Braco No Bronfa
TTITLE7=Bim Bom
TTITLE8=Meditation
TTITLE9=O Pato
EXTD=YEAR: 1964
EXTT0=
EXTT1=
EXTT2=
EXTT3=
EXTT4=
EXTT5=
EXTT6=
EXTT7=
EXTT8=
EXTT9=
PLAYORDER=
